{
	"asset":{
		"generator":"Khronos glTF Blender I/O v4.0.44",
		"version":"2.0"
	},
	"scene":0,
	"scenes":[
		{
			"name":"Scene",
			"nodes":[
				0,
				1,
				2
			]
		}
	],
	"nodes":[
		{
			"mesh":0,
			"name":"Mesh_0",
			"rotation":[
				-0.3829995393753052,
				0,
				0,
				0.9237486720085144
			]
		},
		{
			"camera":0,
			"name":"Camera.001",
			"translation":[
				0.5,
				0.5,
				3
			]
		},
		{
			"camera":1,
			"name":"Camera.002",
			"rotation":[
				-0.21035121381282806,
				0.35323598980903625,
				0.10640569776296616,
				0.9053477644920349
			],
			"translation":[
				3.5299999713897705,
				2.619999885559082,
				3
			]
		}
	],
	"cameras":[
		{
			"name":"Camera.001",
			"perspective":{
				"aspectRatio":1.7777777777777777,
				"yfov":0.699999988079071,
				"zfar":100,
				"znear":0.009999999776482582
			},
			"type":"perspective"
		},
		{
			"name":"Camera.002",
			"orthographic":{
				"xmag":1,
				"ymag":0.5625,
				"zfar":100,
				"znear":0.009999999776482582
			},
			"type":"orthographic"
		}
	],
	"meshes":[
		{
			"name":"Mesh_0",
			"primitives":[
				{
					"attributes":{
						"POSITION":0,
						"NORMAL":1
					},
					"indices":2
				}
			]
		}
	],
	"accessors":[
		{
			"bufferView":0,
			"componentType":5126,
			"count":4,
			"max":[
				1,
				1,
				0
			],
			"min":[
				0,
				0,
				0
			],
			"type":"VEC3"
		},
		{
			"bufferView":1,
			"componentType":5126,
			"count":4,
			"type":"VEC3"
		},
		{
			"bufferView":2,
			"componentType":5123,
			"count":6,
			"type":"SCALAR"
		}
	],
	"bufferViews":[
		{
			"buffer":0,
			"byteLength":48,
			"byteOffset":0,
			"target":34962
		},
		{
			"buffer":0,
			"byteLength":48,
			"byteOffset":48,
			"target":34962
		},
		{
			"buffer":0,
			"byteLength":12,
			"byteOffset":96,
			"target":34963
		}
	],
	"buffers":[
		{
			"byteLength":108,
			"uri":"Cameras.bin"
		}
	]
}
